# xmcd
#
# Track frame offsets: 
#        150
#        25946
#        44104
#        65672
#        84325
#        108209
#        124782
#        141943
#        160295
#        179518
#        197499
#        211624
#        232637
#        248796
#        266838
#        282627
#        304464
#        319146
#        336271
#
# Disc length: 4740 seconds
#
# Revision: 0
# Processed by: cddbd v1.5.2PL0 Copyright (c) Steve Scherf et al.
# Submitted via: ExactAudioCopy v1.3
#
DISCID=1c128213
DTITLE=L.T.D. - Something To Love - Togetherness
DYEAR=2018
DGENRE=R&B
TTITLE0=Age Of The Showdown
TTITLE1=(Won't Cha) Stay With Me
TTITLE2=(Every Time I Turn Around) Back In Love Again
TTITLE3=You Come First At Last
TTITLE4=We Party Hearty
TTITLE5=If You're In Need
TTITLE6=Never Get Enough Of Your Love
TTITLE7=Make Someone Smile, Today!
TTITLE8=Material Things
TTITLE9=Holding On (When Love Is Gone)
TTITLE10=We Both Deserve Each Other's Love
TTITLE11=Jam
TTITLE12=You Must Have Known I Needed Love
TTITLE13=Don't Stop Loving Me Now
TTITLE14=It's Time To Be Real
TTITLE15=Concentrate On You
TTITLE16=You Fooled Me
TTITLE17=Together Forever
TTITLE18=Let's All Live And Give Together
EXTD=
EXTT0=
EXTT1=
EXTT2=
EXTT3=
EXTT4=
EXTT5=
EXTT6=
EXTT7=
EXTT8=
EXTT9=
EXTT10=
EXTT11=
EXTT12=
EXTT13=
EXTT14=
EXTT15=
EXTT16=
EXTT17=
EXTT18=
PLAYORDER=
